<mxfile host="app.diagrams.net" agent="Mozilla/5.0 (Windows NT 10.0; Win64; x64) AppleWebKit/537.36 (KHTML, like Gecko) Chrome/132.0.0.0 Safari/537.36 OPR/117.0.0.0" version="26.1.1">
  <diagram name="Page-1" id="JmWNevqCAfXKFMxsVYDo">
    <mxGraphModel dx="1819" dy="975" grid="1" gridSize="10" guides="1" tooltips="1" connect="1" arrows="1" fold="1" page="1" pageScale="1" pageWidth="850" pageHeight="1100" background="#ffffff" math="0" shadow="0">
      <root>
        <mxCell id="0" />
        <mxCell id="1" parent="0" />
        <mxCell id="EGmfnBFD3pgLUHDMahgh-1" value="Employee" style="swimlane;fontStyle=1;align=center;verticalAlign=top;childLayout=stackLayout;horizontal=1;startSize=26;horizontalStack=0;resizeParent=1;resizeParentMax=0;resizeLast=0;collapsible=1;marginBottom=0;whiteSpace=wrap;html=1;" parent="1" vertex="1">
          <mxGeometry x="80" y="50" width="220" height="190" as="geometry" />
        </mxCell>
        <mxCell id="EGmfnBFD3pgLUHDMahgh-2" value="- idEmployee: int&lt;div&gt;-name: String&lt;/div&gt;" style="text;strokeColor=none;fillColor=none;align=left;verticalAlign=top;spacingLeft=4;spacingRight=4;overflow=hidden;rotatable=0;points=[[0,0.5],[1,0.5]];portConstraint=eastwest;whiteSpace=wrap;html=1;" parent="EGmfnBFD3pgLUHDMahgh-1" vertex="1">
          <mxGeometry y="26" width="220" height="44" as="geometry" />
        </mxCell>
        <mxCell id="EGmfnBFD3pgLUHDMahgh-3" value="" style="line;strokeWidth=1;fillColor=none;align=left;verticalAlign=middle;spacingTop=-1;spacingLeft=3;spacingRight=3;rotatable=0;labelPosition=right;points=[];portConstraint=eastwest;strokeColor=inherit;" parent="EGmfnBFD3pgLUHDMahgh-1" vertex="1">
          <mxGeometry y="70" width="220" height="8" as="geometry" />
        </mxCell>
        <mxCell id="EGmfnBFD3pgLUHDMahgh-4" value="+getIdEmployee(): int&lt;div&gt;+setIdEmployee(idEmployee: int): void&lt;/div&gt;&lt;div&gt;+getName(): string&lt;br&gt;+setName(name: String):void&lt;/div&gt;&lt;div&gt;+equals(o: Object): boolean&lt;/div&gt;&lt;div&gt;+hashCode(): int&lt;/div&gt;" style="text;strokeColor=none;fillColor=none;align=left;verticalAlign=top;spacingLeft=4;spacingRight=4;overflow=hidden;rotatable=0;points=[[0,0.5],[1,0.5]];portConstraint=eastwest;whiteSpace=wrap;html=1;" parent="EGmfnBFD3pgLUHDMahgh-1" vertex="1">
          <mxGeometry y="78" width="220" height="112" as="geometry" />
        </mxCell>
        <mxCell id="EGmfnBFD3pgLUHDMahgh-6" value="TasksManagement" style="swimlane;fontStyle=1;align=center;verticalAlign=top;childLayout=stackLayout;horizontal=1;startSize=26;horizontalStack=0;resizeParent=1;resizeParentMax=0;resizeLast=0;collapsible=1;marginBottom=0;whiteSpace=wrap;html=1;" parent="1" vertex="1">
          <mxGeometry x="50" y="340" width="330" height="340" as="geometry" />
        </mxCell>
        <mxCell id="EGmfnBFD3pgLUHDMahgh-7" value="- employeeTasks: Map&amp;lt;Employee, List&amp;lt;Task&amp;gt;&amp;gt;&lt;div&gt;-tasksMap: Map&amp;lt;Integer, Task&amp;gt;&lt;/div&gt;&lt;div&gt;-employeesMap: Map&amp;lt;Integer, Employee&amp;gt;&lt;/div&gt;&lt;div&gt;&lt;br&gt;&lt;/div&gt;" style="text;strokeColor=none;fillColor=none;align=left;verticalAlign=top;spacingLeft=4;spacingRight=4;overflow=hidden;rotatable=0;points=[[0,0.5],[1,0.5]];portConstraint=eastwest;whiteSpace=wrap;html=1;" parent="EGmfnBFD3pgLUHDMahgh-6" vertex="1">
          <mxGeometry y="26" width="330" height="54" as="geometry" />
        </mxCell>
        <mxCell id="EGmfnBFD3pgLUHDMahgh-8" value="" style="line;strokeWidth=1;fillColor=none;align=left;verticalAlign=middle;spacingTop=-1;spacingLeft=3;spacingRight=3;rotatable=0;labelPosition=right;points=[];portConstraint=eastwest;strokeColor=inherit;" parent="EGmfnBFD3pgLUHDMahgh-6" vertex="1">
          <mxGeometry y="80" width="330" height="8" as="geometry" />
        </mxCell>
        <mxCell id="EGmfnBFD3pgLUHDMahgh-9" value="+ assignTaskToEmployee(idEmployee:int, task: Task): void&lt;div&gt;+ calculateEmployeeWorkDuration(idEmployee: int): int&lt;/div&gt;&lt;div&gt;+ modifyTaskStatus(idEmployee: int, idTask, int): void&lt;/div&gt;&lt;div&gt;+ saveDataFromTaskManagement(): void&lt;/div&gt;&lt;div&gt;+getEmployeeTasksMap(): Map&amp;lt;Employee, List&amp;lt;Task&amp;gt;&amp;gt;&lt;/div&gt;&lt;div&gt;+addEmployee(employee: Employee): void&lt;/div&gt;&lt;div&gt;+getAllEmployees(): List&amp;lt;Employee&amp;gt;&lt;/div&gt;&lt;div&gt;+getEmployeeById(employeeId: int): Employee&lt;/div&gt;&lt;div&gt;+addTask(task: Task): void&lt;/div&gt;&lt;div&gt;+getAllTasks(): List&amp;lt;Task&amp;gt;&lt;/div&gt;&lt;div&gt;+getTaskById( taskId: int): Task&lt;/div&gt;&lt;div&gt;+assignTaskToEmployee(idEmployee: int, task: Task): void&lt;/div&gt;&lt;div&gt;+totalWorkHoursInList(tasks: List&amp;lt;Task&amp;gt;): int&lt;/div&gt;&lt;div&gt;+modifyTaskFromList(tasks: List&amp;lt;task&amp;gt;, int idTask): boolean&lt;/div&gt;&lt;div&gt;&lt;br&gt;&lt;/div&gt;&lt;div&gt;&lt;br&gt;&lt;/div&gt;" style="text;strokeColor=none;fillColor=none;align=left;verticalAlign=top;spacingLeft=4;spacingRight=4;overflow=hidden;rotatable=0;points=[[0,0.5],[1,0.5]];portConstraint=eastwest;whiteSpace=wrap;html=1;" parent="EGmfnBFD3pgLUHDMahgh-6" vertex="1">
          <mxGeometry y="88" width="330" height="252" as="geometry" />
        </mxCell>
        <mxCell id="EGmfnBFD3pgLUHDMahgh-11" value="&lt;i&gt;Task&lt;/i&gt;" style="swimlane;fontStyle=1;align=center;verticalAlign=top;childLayout=stackLayout;horizontal=1;startSize=26;horizontalStack=0;resizeParent=1;resizeParentMax=0;resizeLast=0;collapsible=1;marginBottom=0;whiteSpace=wrap;html=1;" parent="1" vertex="1">
          <mxGeometry x="250" y="760" width="160" height="210" as="geometry" />
        </mxCell>
        <mxCell id="EGmfnBFD3pgLUHDMahgh-12" value="- idTask: int&lt;div&gt;-statusTask: String&lt;/div&gt;&lt;div&gt;&lt;br&gt;&lt;/div&gt;" style="text;strokeColor=none;fillColor=none;align=left;verticalAlign=top;spacingLeft=4;spacingRight=4;overflow=hidden;rotatable=0;points=[[0,0.5],[1,0.5]];portConstraint=eastwest;whiteSpace=wrap;html=1;" parent="EGmfnBFD3pgLUHDMahgh-11" vertex="1">
          <mxGeometry y="26" width="160" height="44" as="geometry" />
        </mxCell>
        <mxCell id="EGmfnBFD3pgLUHDMahgh-13" value="" style="line;strokeWidth=1;fillColor=none;align=left;verticalAlign=middle;spacingTop=-1;spacingLeft=3;spacingRight=3;rotatable=0;labelPosition=right;points=[];portConstraint=eastwest;strokeColor=inherit;" parent="EGmfnBFD3pgLUHDMahgh-11" vertex="1">
          <mxGeometry y="70" width="160" height="8" as="geometry" />
        </mxCell>
        <mxCell id="EGmfnBFD3pgLUHDMahgh-14" value="+ estimateDuration(): int&lt;div&gt;+getIdTask(): int&lt;/div&gt;&lt;div&gt;+getStatusTask(): String&lt;/div&gt;&lt;div&gt;+setIdTask(idTask:int):void&lt;/div&gt;&lt;div&gt;+modifyStatus(): void&lt;/div&gt;&lt;div&gt;+equals(o: Object): boolean&lt;/div&gt;&lt;div&gt;+hashCod():int&lt;/div&gt;" style="text;strokeColor=none;fillColor=none;align=left;verticalAlign=top;spacingLeft=4;spacingRight=4;overflow=hidden;rotatable=0;points=[[0,0.5],[1,0.5]];portConstraint=eastwest;whiteSpace=wrap;html=1;" parent="EGmfnBFD3pgLUHDMahgh-11" vertex="1">
          <mxGeometry y="78" width="160" height="132" as="geometry" />
        </mxCell>
        <mxCell id="EGmfnBFD3pgLUHDMahgh-15" value="SimpleTask" style="swimlane;fontStyle=1;align=center;verticalAlign=top;childLayout=stackLayout;horizontal=1;startSize=26;horizontalStack=0;resizeParent=1;resizeParentMax=0;resizeLast=0;collapsible=1;marginBottom=0;whiteSpace=wrap;html=1;" parent="1" vertex="1">
          <mxGeometry x="70" y="1230" width="220" height="170" as="geometry" />
        </mxCell>
        <mxCell id="EGmfnBFD3pgLUHDMahgh-16" value="- startHour: int&lt;div&gt;- endHour: int&lt;/div&gt;" style="text;strokeColor=none;fillColor=none;align=left;verticalAlign=top;spacingLeft=4;spacingRight=4;overflow=hidden;rotatable=0;points=[[0,0.5],[1,0.5]];portConstraint=eastwest;whiteSpace=wrap;html=1;" parent="EGmfnBFD3pgLUHDMahgh-15" vertex="1">
          <mxGeometry y="26" width="220" height="44" as="geometry" />
        </mxCell>
        <mxCell id="EGmfnBFD3pgLUHDMahgh-17" value="" style="line;strokeWidth=1;fillColor=none;align=left;verticalAlign=middle;spacingTop=-1;spacingLeft=3;spacingRight=3;rotatable=0;labelPosition=right;points=[];portConstraint=eastwest;strokeColor=inherit;" parent="EGmfnBFD3pgLUHDMahgh-15" vertex="1">
          <mxGeometry y="70" width="220" height="8" as="geometry" />
        </mxCell>
        <mxCell id="EGmfnBFD3pgLUHDMahgh-18" value="+ estimateDuration(): int&lt;div&gt;+ getStartHour(): int&lt;/div&gt;&lt;div&gt;+ setStartHour(startHour: int): void&lt;/div&gt;&lt;div&gt;+getEndHour(): int&lt;/div&gt;&lt;div&gt;+setEndHour(endHour: int):void&lt;/div&gt;" style="text;strokeColor=none;fillColor=none;align=left;verticalAlign=top;spacingLeft=4;spacingRight=4;overflow=hidden;rotatable=0;points=[[0,0.5],[1,0.5]];portConstraint=eastwest;whiteSpace=wrap;html=1;" parent="EGmfnBFD3pgLUHDMahgh-15" vertex="1">
          <mxGeometry y="78" width="220" height="92" as="geometry" />
        </mxCell>
        <mxCell id="EGmfnBFD3pgLUHDMahgh-19" value="ComplexTask" style="swimlane;fontStyle=1;align=center;verticalAlign=top;childLayout=stackLayout;horizontal=1;startSize=26;horizontalStack=0;resizeParent=1;resizeParentMax=0;resizeLast=0;collapsible=1;marginBottom=0;whiteSpace=wrap;html=1;" parent="1" vertex="1">
          <mxGeometry x="360" y="1240" width="210" height="150" as="geometry" />
        </mxCell>
        <mxCell id="EGmfnBFD3pgLUHDMahgh-20" value="- subTasks: List&amp;lt;Task&amp;gt;" style="text;strokeColor=none;fillColor=none;align=left;verticalAlign=top;spacingLeft=4;spacingRight=4;overflow=hidden;rotatable=0;points=[[0,0.5],[1,0.5]];portConstraint=eastwest;whiteSpace=wrap;html=1;" parent="EGmfnBFD3pgLUHDMahgh-19" vertex="1">
          <mxGeometry y="26" width="210" height="26" as="geometry" />
        </mxCell>
        <mxCell id="EGmfnBFD3pgLUHDMahgh-21" value="" style="line;strokeWidth=1;fillColor=none;align=left;verticalAlign=middle;spacingTop=-1;spacingLeft=3;spacingRight=3;rotatable=0;labelPosition=right;points=[];portConstraint=eastwest;strokeColor=inherit;" parent="EGmfnBFD3pgLUHDMahgh-19" vertex="1">
          <mxGeometry y="52" width="210" height="8" as="geometry" />
        </mxCell>
        <mxCell id="EGmfnBFD3pgLUHDMahgh-22" value="+ addTask(task: Task): void&lt;div&gt;+ deleteTask(task: Task):void&lt;/div&gt;&lt;div&gt;+ estimateDuration(): int&lt;/div&gt;&lt;div&gt;+ getTasks(): List&amp;lt;Task&amp;gt;&lt;/div&gt;&lt;div&gt;+ setTasks(tasks: List&amp;lt;tasks&amp;gt;): void&lt;/div&gt;" style="text;strokeColor=none;fillColor=none;align=left;verticalAlign=top;spacingLeft=4;spacingRight=4;overflow=hidden;rotatable=0;points=[[0,0.5],[1,0.5]];portConstraint=eastwest;whiteSpace=wrap;html=1;" parent="EGmfnBFD3pgLUHDMahgh-19" vertex="1">
          <mxGeometry y="60" width="210" height="90" as="geometry" />
        </mxCell>
        <mxCell id="EGmfnBFD3pgLUHDMahgh-23" value="" style="endArrow=block;endSize=16;endFill=0;html=1;rounded=0;entryX=0.192;entryY=0.997;entryDx=0;entryDy=0;entryPerimeter=0;exitX=0.5;exitY=0;exitDx=0;exitDy=0;" parent="1" source="EGmfnBFD3pgLUHDMahgh-15" target="EGmfnBFD3pgLUHDMahgh-14" edge="1">
          <mxGeometry width="160" relative="1" as="geometry">
            <mxPoint x="316" y="753" as="sourcePoint" />
            <mxPoint x="500" y="520" as="targetPoint" />
            <Array as="points">
              <mxPoint x="180" y="1120" />
              <mxPoint x="280" y="1120" />
            </Array>
          </mxGeometry>
        </mxCell>
        <mxCell id="EGmfnBFD3pgLUHDMahgh-24" value="" style="endArrow=block;endSize=16;endFill=0;html=1;rounded=0;entryX=0.758;entryY=1.003;entryDx=0;entryDy=0;entryPerimeter=0;exitX=0.5;exitY=0;exitDx=0;exitDy=0;" parent="1" source="EGmfnBFD3pgLUHDMahgh-19" target="EGmfnBFD3pgLUHDMahgh-14" edge="1">
          <mxGeometry x="0.003" width="160" relative="1" as="geometry">
            <mxPoint x="540" y="750" as="sourcePoint" />
            <mxPoint x="500" y="520" as="targetPoint" />
            <mxPoint as="offset" />
            <Array as="points">
              <mxPoint x="465" y="1120" />
              <mxPoint x="370" y="1120" />
            </Array>
          </mxGeometry>
        </mxCell>
        <mxCell id="EGmfnBFD3pgLUHDMahgh-25" value="" style="endArrow=diamondThin;endFill=0;endSize=24;html=1;rounded=0;entryX=1;entryY=0.5;entryDx=0;entryDy=0;exitX=1;exitY=0.5;exitDx=0;exitDy=0;" parent="1" source="EGmfnBFD3pgLUHDMahgh-12" target="EGmfnBFD3pgLUHDMahgh-20" edge="1">
          <mxGeometry width="160" relative="1" as="geometry">
            <mxPoint x="510" y="600" as="sourcePoint" />
            <mxPoint x="720" y="840" as="targetPoint" />
            <Array as="points">
              <mxPoint x="660" y="810" />
              <mxPoint x="660" y="1279" />
            </Array>
          </mxGeometry>
        </mxCell>
        <mxCell id="EGmfnBFD3pgLUHDMahgh-26" value="" style="endArrow=diamondThin;endFill=0;endSize=24;html=1;rounded=0;exitX=-0.001;exitY=0.548;exitDx=0;exitDy=0;exitPerimeter=0;entryX=0.483;entryY=1.004;entryDx=0;entryDy=0;entryPerimeter=0;" parent="1" edge="1">
          <mxGeometry width="160" relative="1" as="geometry">
            <mxPoint x="249.99999999999997" y="809.1020000000001" as="sourcePoint" />
            <mxPoint x="209.54999999999998" y="679.9979999999999" as="targetPoint" />
            <Array as="points">
              <mxPoint x="210.16" y="808.99" />
            </Array>
          </mxGeometry>
        </mxCell>
        <mxCell id="EGmfnBFD3pgLUHDMahgh-27" value="" style="endArrow=diamondThin;endFill=0;endSize=24;html=1;rounded=0;entryX=0.512;entryY=0.003;entryDx=0;entryDy=0;entryPerimeter=0;" parent="1" source="EGmfnBFD3pgLUHDMahgh-4" target="EGmfnBFD3pgLUHDMahgh-6" edge="1">
          <mxGeometry width="160" relative="1" as="geometry">
            <mxPoint x="190" y="220" as="sourcePoint" />
            <mxPoint x="380" y="220" as="targetPoint" />
            <Array as="points">
              <mxPoint x="190" y="280" />
              <mxPoint x="220" y="280" />
            </Array>
          </mxGeometry>
        </mxCell>
        <mxCell id="b6Cu6AeOrpDNSnRvHGUK-1" value="DataS" style="swimlane;fontStyle=1;align=center;verticalAlign=top;childLayout=stackLayout;horizontal=1;startSize=26;horizontalStack=0;resizeParent=1;resizeParentMax=0;resizeLast=0;collapsible=1;marginBottom=0;whiteSpace=wrap;html=1;" vertex="1" parent="1">
          <mxGeometry x="490" y="90" width="740" height="140" as="geometry" />
        </mxCell>
        <mxCell id="b6Cu6AeOrpDNSnRvHGUK-2" value="- employeeFile: String&lt;div&gt;- taskFile: String&lt;/div&gt;&lt;div&gt;-assignmentsFile: String&lt;/div&gt;" style="text;strokeColor=none;fillColor=none;align=left;verticalAlign=top;spacingLeft=4;spacingRight=4;overflow=hidden;rotatable=0;points=[[0,0.5],[1,0.5]];portConstraint=eastwest;whiteSpace=wrap;html=1;" vertex="1" parent="b6Cu6AeOrpDNSnRvHGUK-1">
          <mxGeometry y="26" width="740" height="54" as="geometry" />
        </mxCell>
        <mxCell id="b6Cu6AeOrpDNSnRvHGUK-3" value="" style="line;strokeWidth=1;fillColor=none;align=left;verticalAlign=middle;spacingTop=-1;spacingLeft=3;spacingRight=3;rotatable=0;labelPosition=right;points=[];portConstraint=eastwest;strokeColor=inherit;" vertex="1" parent="b6Cu6AeOrpDNSnRvHGUK-1">
          <mxGeometry y="80" width="740" height="8" as="geometry" />
        </mxCell>
        <mxCell id="b6Cu6AeOrpDNSnRvHGUK-4" value="+ saveData(employeeMap: Map&amp;lt;Integer, Employee&amp;gt;, taskMap: Map&amp;lt;Integer, Task&amp;gt;, employeeTasks: Map&amp;lt;Employee, List&amp;lt;Task&amp;gt;): void&lt;div&gt;+ loadData(&lt;span style=&quot;background-color: transparent; color: light-dark(rgb(0, 0, 0), rgb(255, 255, 255));&quot;&gt;employeeMap: Map&amp;lt;Integer, Employee&amp;gt;, taskMap: Map&amp;lt;Integer, Task&amp;gt;, employeeTasks: Map&amp;lt;Employee, List&amp;lt;Task&amp;gt;): void&lt;/span&gt;&lt;/div&gt;" style="text;strokeColor=none;fillColor=none;align=left;verticalAlign=top;spacingLeft=4;spacingRight=4;overflow=hidden;rotatable=0;points=[[0,0.5],[1,0.5]];portConstraint=eastwest;whiteSpace=wrap;html=1;" vertex="1" parent="b6Cu6AeOrpDNSnRvHGUK-1">
          <mxGeometry y="88" width="740" height="52" as="geometry" />
        </mxCell>
        <mxCell id="b6Cu6AeOrpDNSnRvHGUK-5" value="" style="endArrow=open;endSize=12;dashed=1;html=1;rounded=0;exitX=0.271;exitY=1;exitDx=0;exitDy=0;exitPerimeter=0;" edge="1" parent="1" source="b6Cu6AeOrpDNSnRvHGUK-4">
          <mxGeometry width="160" relative="1" as="geometry">
            <mxPoint x="370" y="450" as="sourcePoint" />
            <mxPoint x="380" y="460" as="targetPoint" />
            <Array as="points">
              <mxPoint x="690" y="460" />
            </Array>
          </mxGeometry>
        </mxCell>
        <mxCell id="b6Cu6AeOrpDNSnRvHGUK-8" value="TaskManagementGUI" style="swimlane;fontStyle=1;align=center;verticalAlign=top;childLayout=stackLayout;horizontal=1;startSize=26;horizontalStack=0;resizeParent=1;resizeParentMax=0;resizeLast=0;collapsible=1;marginBottom=0;whiteSpace=wrap;html=1;" vertex="1" parent="1">
          <mxGeometry x="680" y="480" width="200" height="94" as="geometry" />
        </mxCell>
        <mxCell id="b6Cu6AeOrpDNSnRvHGUK-9" value="- controller: TaskManagement&lt;div&gt;...&lt;/div&gt;" style="text;strokeColor=none;fillColor=none;align=left;verticalAlign=top;spacingLeft=4;spacingRight=4;overflow=hidden;rotatable=0;points=[[0,0.5],[1,0.5]];portConstraint=eastwest;whiteSpace=wrap;html=1;" vertex="1" parent="b6Cu6AeOrpDNSnRvHGUK-8">
          <mxGeometry y="26" width="200" height="34" as="geometry" />
        </mxCell>
        <mxCell id="b6Cu6AeOrpDNSnRvHGUK-10" value="" style="line;strokeWidth=1;fillColor=none;align=left;verticalAlign=middle;spacingTop=-1;spacingLeft=3;spacingRight=3;rotatable=0;labelPosition=right;points=[];portConstraint=eastwest;strokeColor=inherit;" vertex="1" parent="b6Cu6AeOrpDNSnRvHGUK-8">
          <mxGeometry y="60" width="200" height="8" as="geometry" />
        </mxCell>
        <mxCell id="b6Cu6AeOrpDNSnRvHGUK-11" value="+ GUIFunctions():void" style="text;strokeColor=none;fillColor=none;align=left;verticalAlign=top;spacingLeft=4;spacingRight=4;overflow=hidden;rotatable=0;points=[[0,0.5],[1,0.5]];portConstraint=eastwest;whiteSpace=wrap;html=1;" vertex="1" parent="b6Cu6AeOrpDNSnRvHGUK-8">
          <mxGeometry y="68" width="200" height="26" as="geometry" />
        </mxCell>
        <mxCell id="b6Cu6AeOrpDNSnRvHGUK-12" value="" style="endArrow=diamondThin;endFill=0;endSize=24;html=1;rounded=0;exitX=1;exitY=0.37;exitDx=0;exitDy=0;entryX=0;entryY=0.5;entryDx=0;entryDy=0;exitPerimeter=0;" edge="1" parent="1" source="EGmfnBFD3pgLUHDMahgh-9" target="b6Cu6AeOrpDNSnRvHGUK-9">
          <mxGeometry width="160" relative="1" as="geometry">
            <mxPoint x="380" y="480" as="sourcePoint" />
            <mxPoint x="540" y="480" as="targetPoint" />
          </mxGeometry>
        </mxCell>
        <mxCell id="b6Cu6AeOrpDNSnRvHGUK-13" value="Utility" style="swimlane;fontStyle=1;align=center;verticalAlign=top;childLayout=stackLayout;horizontal=1;startSize=26;horizontalStack=0;resizeParent=1;resizeParentMax=0;resizeLast=0;collapsible=1;marginBottom=0;whiteSpace=wrap;html=1;" vertex="1" parent="1">
          <mxGeometry x="510" y="610" width="730" height="80" as="geometry" />
        </mxCell>
        <mxCell id="b6Cu6AeOrpDNSnRvHGUK-15" value="" style="line;strokeWidth=1;fillColor=none;align=left;verticalAlign=middle;spacingTop=-1;spacingLeft=3;spacingRight=3;rotatable=0;labelPosition=right;points=[];portConstraint=eastwest;strokeColor=inherit;" vertex="1" parent="b6Cu6AeOrpDNSnRvHGUK-13">
          <mxGeometry y="26" width="730" height="4" as="geometry" />
        </mxCell>
        <mxCell id="b6Cu6AeOrpDNSnRvHGUK-16" value="+ countCompletedAndUncompletedTasks(employeeTasks: Map&amp;lt;Employee, List&amp;lt;Task&amp;gt;&amp;gt;, employee: Employee): Map&amp;lt;String, Integer&amp;gt;&lt;div&gt;+ getSortedEmployeesByWorkHours(controller: TaskManagement): List&amp;lt;Employee&amp;gt;&lt;/div&gt;" style="text;strokeColor=none;fillColor=none;align=left;verticalAlign=top;spacingLeft=4;spacingRight=4;overflow=hidden;rotatable=0;points=[[0,0.5],[1,0.5]];portConstraint=eastwest;whiteSpace=wrap;html=1;" vertex="1" parent="b6Cu6AeOrpDNSnRvHGUK-13">
          <mxGeometry y="30" width="730" height="50" as="geometry" />
        </mxCell>
        <mxCell id="b6Cu6AeOrpDNSnRvHGUK-20" value="" style="endArrow=open;endSize=12;dashed=1;html=1;rounded=0;exitX=1.001;exitY=0.917;exitDx=0;exitDy=0;exitPerimeter=0;entryX=0;entryY=0.393;entryDx=0;entryDy=0;entryPerimeter=0;" edge="1" parent="1" source="EGmfnBFD3pgLUHDMahgh-9" target="b6Cu6AeOrpDNSnRvHGUK-16">
          <mxGeometry width="160" relative="1" as="geometry">
            <mxPoint x="385" y="660" as="sourcePoint" />
            <mxPoint x="545" y="660" as="targetPoint" />
          </mxGeometry>
        </mxCell>
      </root>
    </mxGraphModel>
  </diagram>
</mxfile>
